<svg xmlns="http://www.w3.org/2000/svg" viewBox="0 0 512 512"><path d="M331.1 419.8h-150.2l8-24h55.1v-49.1h24v49.1h55.1z"/><path d="M92 349.5c-12.1 0-22-9.9-22-22v-180.3c0-12.1 9.9-22 22-22h328c12.1 0 22 9.9 22 22v180.3c0 12.1-9.9 22-22 22h-328z" fill="#FaFaFa"/><path d="M420 131.2c8.8 0 16 7.2 16 16v180.3c0 8.8-7.2 16-16 16h-328c-8.8 0-16-7.2-16-16v-180.3c0-8.8 7.2-16 16-16h328m0-12h-328c-15.4 0-28 12.6-28 28v180.3c0 15.4 12.6 28 28 28h328c15.4 0 28-12.6 28-28v-180.3c0-15.4-12.6-28-28-28z"/><path d="M250.2 275.7v-34.6c-10.8-3.1-18.7-7.8-23.8-14-5-6.3-7.6-13.9-7.6-22.8 0-9 2.8-16.6 8.6-22.8 5.7-6.1 13.3-9.7 22.8-10.6v-8.2h12v8.2c8.8 1 15.7 4 20.9 9 5.2 4.9 8.5 11.5 9.9 19.8l-20.9 2.7c-1.3-6.5-4.6-10.9-9.9-13.2v32.3c13.2 3.6 22.2 8.2 27 13.9 4.8 5.7 7.2 13 7.2 22 0 10-3 18.4-9.1 25.2-6 6.8-14.4 11-25.2 12.6v15.5h-12v-15c-9.5-1.2-17.3-4.7-23.2-10.7s-9.8-14.4-11.4-25.2l21.6-2.3c.9 4.4 2.5 8.2 5 11.4 2.4 3.1 5.1 5.4 8.1 6.8zm0-86.8c-3.3 1.1-5.8 3-7.8 5.6-1.9 2.6-2.9 5.6-2.9 8.8 0 2.9.9 5.6 2.6 8.1s4.4 4.5 8 6.1v-28.6h.1zm12 88c4.1-.8 7.5-2.7 10.1-5.8 2.6-3.1 3.9-6.7 3.9-10.8 0-3.7-1.1-6.9-3.3-9.6-2.2-2.7-5.7-4.7-10.7-6.2v32.4zm86.2-14.3v-23c-7.2-2-12.4-5.1-15.8-9.3-3.3-4.2-5-9.2-5-15.1 0-6 1.9-11 5.7-15.1s8.8-6.4 15.1-7v-5.4h8v5.4c5.8.7 10.4 2.7 13.9 6 3.4 3.3 5.6 7.6 6.6 13.1l-13.9 1.8c-.8-4.3-3-7.2-6.6-8.8v21.4c8.8 2.4 14.7 5.5 17.9 9.2 3.2 3.8 4.8 8.6 4.8 14.6 0 6.6-2 12.2-6 16.7s-9.6 7.3-16.7 8.3v10.2h-8v-10c-6.3-.8-11.5-3.1-15.4-7.1s-6.5-9.5-7.6-16.7l14.3-1.5c.6 2.9 1.7 5.4 3.3 7.6 1.7 2.2 3.5 3.7 5.4 4.7zm0-57.6c-2.2.7-3.9 2-5.2 3.7-1.3 1.8-1.9 3.7-1.9 5.8 0 1.9.6 3.7 1.8 5.4s2.9 3 5.3 4v-18.9zm8 58.4c2.7-.5 5-1.8 6.7-3.8 1.7-2 2.6-4.4 2.6-7.2 0-2.4-.7-4.6-2.2-6.3-1.4-1.8-3.8-3.1-7.1-4.1v21.4zm-200.5-.8v-23c-7.2-2-12.4-5.1-15.8-9.3-3.3-4.2-5-9.2-5-15.1 0-6 1.9-11 5.7-15.1s8.8-6.4 15.1-7v-5.4h8v5.4c5.8.7 10.4 2.7 13.9 6 3.4 3.3 5.6 7.6 6.6 13.1l-13.9 1.8c-.8-4.3-3-7.2-6.6-8.8v21.4c8.8 2.4 14.7 5.5 17.9 9.2 3.2 3.8 4.8 8.6 4.8 14.6 0 6.6-2 12.2-6 16.7s-9.6 7.3-16.7 8.3v10.2h-8v-10c-6.3-.8-11.5-3.1-15.4-7.1s-6.5-9.5-7.6-16.7l14.3-1.5c.6 2.9 1.7 5.4 3.3 7.6 1.6 2.2 3.4 3.7 5.4 4.7zm0-57.6c-2.2.7-3.9 2-5.2 3.7-1.3 1.8-1.9 3.7-1.9 5.8 0 1.9.6 3.7 1.8 5.4s2.9 3 5.3 4v-18.9zm7.9 58.4c2.7-.5 5-1.8 6.7-3.8 1.7-2 2.6-4.4 2.6-7.2 0-2.4-.7-4.6-2.2-6.3-1.4-1.8-3.8-3.1-7.1-4.1v21.4z" fill="#fa1c1c"/></svg>