<svg xmlns="http://www.w3.org/2000/svg" viewBox="0 0 152 227"><path d="M45,7.5H145l50,50v175H45Z" transform="translate(-44 -6.5)" style="fill:#f4f4f5;stroke:#18181b;stroke-linecap:square;stroke-width:2px"/><path d="M125.63,108.75c-.94,0-.94-.94-1.88-.94V78.75a63.45,63.45,0,0,1,20.63,5.63l8.43-16.88c-.94,0-14.06-7.5-29.06-7.5V45h-9.37V60a57.35,57.35,0,0,0-18.76,8.44A30.51,30.51,0,0,0,86.25,90c0,6.56,1.87,21.56,28.13,33.75v36.56c-8.44-1.87-18.76-6.56-22.51-8.43L82.5,167.81c1.87.94,16.88,9.38,31.88,11.25V195h9.37V179.06h0c21.56-2.81,33.75-19.69,33.75-35.62C157.5,129.37,148.13,118.12,125.63,108.75Zm-11.25-5.63c-7.5-4.68-9.38-9.37-9.38-12.18,0-3.75.94-6.57,3.75-8.44l5.63-2.81Zm9.37,57.19V128.44c10.31,4.69,15,10.31,15,15C138.75,149.06,135.94,158.44,123.75,160.31Z" transform="translate(-44 -6.5)" style="fill:#155dfc;stroke:#18181b;stroke-linecap:square"/></svg>