<svg xmlns="http://www.w3.org/2000/svg" viewBox="0 0 512 512"><path d="M256 0c-141.384 0-256 114.616-256 256s114.616 256 256 256 256-114.616 256-256-114.616-256-256-256z" fill="#E5E5E5"/><path d="M244 346.72h24v58.152h-24zM180.928 419.832l8-24h134.144l8 24z"/><path d="M91.976 349.472c-12.12 0-21.976-9.856-21.976-21.976v-180.336c0-12.12 9.856-21.976 21.976-21.976h328.056c12.12 0 21.976 9.856 21.976 21.976v180.336c0 12.12-9.856 21.976-21.976 21.976h-328.056z" fill="#fff"/><path d="M420.024 131.184c8.808 0 15.976 7.168 15.976 15.976v180.344c0 8.808-7.168 15.976-15.976 15.976h-328.048c-8.808 0-15.976-7.168-15.976-15.976v-180.344c0-8.808 7.168-15.976 15.976-15.976h328.048m0-12h-328.048c-15.384 0-27.976 12.592-27.976 27.976v180.344c0 15.384 12.592 27.976 27.976 27.976h328.056c15.384 0 27.976-12.592 27.976-27.976v-180.344c-.008-15.384-12.6-27.976-27.984-27.976z"/><g fill="#F00000"><path d="M250.216 275.744v-34.64c-10.808-3.088-18.728-7.76-23.776-14.016-5.04-6.256-7.56-13.856-7.56-22.784 0-9.04 2.848-16.632 8.56-22.784 5.704-6.144 13.296-9.688 22.784-10.624v-8.184h11.992v8.184c8.76 1.048 15.736 4.04 20.92 8.976 5.176 4.936 8.488 11.536 9.92 19.8l-20.928 2.728c-1.272-6.504-4.576-10.912-9.92-13.232v32.336c13.224 3.584 22.24 8.224 27.04 13.936 4.792 5.704 7.2 13.024 7.2 21.952 0 9.976-3.016 18.384-9.056 25.224-6.032 6.832-14.424 11.024-25.176 12.568v15.464h-11.992v-15.048c-9.536-1.152-17.28-4.712-23.232-10.664s-9.76-14.352-11.416-25.216l21.584-2.312c.88 4.408 2.528 8.216 4.96 11.416 2.416 3.176 5.112 5.488 8.096 6.92zm0-86.824c-3.256 1.104-5.848 2.976-7.776 5.624-1.936 2.648-2.896 5.568-2.896 8.76 0 2.92.88 5.64 2.648 8.144s4.44 4.536 8.024 6.08v-28.608zm11.984 87.984c4.128-.776 7.496-2.688 10.088-5.752 2.592-3.056 3.888-6.656 3.888-10.792 0-3.696-1.088-6.872-3.264-9.552-2.176-2.672-5.744-4.72-10.704-6.16l-.008 32.256zM348.448 262.584v-22.968c-7.168-2.048-12.416-5.144-15.768-9.296-3.344-4.152-5.016-9.184-5.016-15.104 0-5.992 1.888-11.032 5.672-15.104s8.816-6.424 15.104-7.048v-5.424h7.952v5.424c5.808.696 10.432 2.68 13.872 5.952 3.432 3.272 5.624 7.648 6.576 13.128l-13.872 1.808c-.84-4.312-3.032-7.24-6.576-8.776v21.44c8.768 2.376 14.744 5.456 17.928 9.24 3.176 3.776 4.768 8.632 4.768 14.552 0 6.616-2 12.192-6.008 16.72-4 4.528-9.568 7.312-16.688 8.336v10.248h-7.952v-9.976c-6.328-.768-11.456-3.128-15.408-7.072s-6.472-9.52-7.568-16.72l14.312-1.536c.584 2.928 1.68 5.448 3.288 7.568 1.624 2.12 3.408 3.656 5.384 4.608zm0-57.568c-2.16.728-3.88 1.976-5.152 3.728-1.28 1.752-1.92 3.688-1.92 5.808 0 1.936.584 3.736 1.752 5.4s2.944 3.008 5.32 4.032v-18.968zm7.952 58.336c2.736-.512 4.968-1.784 6.688-3.816 1.72-2.024 2.576-4.416 2.576-7.152 0-2.448-.72-4.56-2.168-6.336-1.44-1.768-3.808-3.136-7.096-4.088v21.392zM155.872 262.584v-22.968c-7.168-2.048-12.416-5.144-15.768-9.296-3.344-4.152-5.016-9.184-5.016-15.104 0-5.992 1.888-11.032 5.672-15.104s8.816-6.424 15.104-7.048v-5.424h7.952v5.424c5.808.696 10.432 2.68 13.872 5.952 3.432 3.272 5.624 7.648 6.576 13.128l-13.872 1.808c-.84-4.312-3.032-7.24-6.576-8.776v21.44c8.768 2.376 14.744 5.456 17.928 9.24 3.176 3.776 4.768 8.632 4.768 14.552 0 6.616-2 12.192-6.008 16.72-4 4.528-9.568 7.312-16.688 8.336v10.248h-7.952v-9.976c-6.328-.768-11.456-3.128-15.408-7.072s-6.472-9.52-7.568-16.72l14.312-1.536c.584 2.928 1.68 5.448 3.288 7.568 1.624 2.12 3.408 3.656 5.384 4.608zm0-57.568c-2.16.728-3.88 1.976-5.152 3.728-1.28 1.752-1.92 3.688-1.92 5.808 0 1.936.584 3.736 1.752 5.4s2.944 3.008 5.32 4.032v-18.968zm7.952 58.336c2.736-.512 4.968-1.784 6.688-3.816 1.72-2.024 2.576-4.416 2.576-7.152 0-2.448-.72-4.56-2.168-6.336-1.44-1.768-3.808-3.136-7.096-4.088v21.392z"/></g></svg>